<?xml version="1.0" encoding="utf-8"?>
<svg id="logo" viewBox="0 0 84 96" xmlns="http://www.w3.org/2000/svg">
  <title>Logo</title>
  <g transform="translate(-8.000000, -2.000000)">
    <g transform="translate(11.000000, 5.000000)">
      <polygon id="Shape" stroke="#64ffda" strokewidth="10" strokelinecap="round" strokelinejoin="round" points="39 0 0 22 0 67 39 90 78 68 78 23"/>
      <path stroke="#64ffda" strokewidth="10" strokelinecap="round" strokelinejoin="round" d="M 62.308 48.806 L 62.308 23.821 L 57.114 26.953 L 57.114 48.806 L 57.107 48.806 C 57.107 50.084 55.92 51.121 54.454 51.121 C 52.984 51.121 51.79 50.084 51.79 48.806 L 51.797 37.207 C 51.797 33.426 48.282 30.359 43.939 30.359 C 39.6 30.359 36.078 33.426 36.078 37.207 L 36.078 48.806 C 36.078 50.084 34.884 51.121 33.417 51.121 C 31.951 51.121 30.757 50.084 30.757 48.806 L 30.764 37.207 C 30.764 33.426 27.251 30.359 22.905 30.359 C 18.564 30.359 15.051 33.426 15.051 37.207 L 15.055 37.207 L 15.055 62.189 L 20.249 59.055 L 20.252 37.207 C 20.252 35.924 21.446 34.889 22.909 34.889 C 24.379 34.889 25.569 35.924 25.569 37.207 L 25.556 48.806 C 25.556 52.587 29.079 55.654 33.421 55.654 C 37.762 55.654 41.282 52.587 41.282 48.806 L 41.279 48.806 L 41.282 37.207 C 41.282 35.924 42.477 34.889 43.945 34.889 C 45.415 34.889 46.604 35.924 46.604 37.207 L 46.596 48.806 C 46.596 52.587 50.115 55.654 54.457 55.654 C 58.8 55.654 62.318 52.587 62.318 48.806 L 62.315 48.806 L 62.308 48.806 Z" style=""/>
    </g>
  </g>
</svg>