 <svg
      version="1.1"
      xmlns="http://www.w3.org/2000/svg"
      width="40"
      height="50"
      viewBox="0 0 30 30"
    >
      <g fill="#EB6B44">
        <path d="M11.6288 21.312c-5.46 0-9.8845-4.3844-9.8845-9.792 0-5.4076 4.4246-9.792 9.8845-9.792 5.4586 0 9.8844 4.3844 9.8844 9.792 0 5.4076-4.4258 9.792-9.8844 9.792m0-21.312C5.2068 0 0 5.1572 0 11.52c0 6.362 5.2067 11.52 11.6288 11.52 6.422 0 11.6288-5.158 11.6288-11.52C23.2576 5.1572 18.051 0 11.6288 0"></path>
        <path d="M17.5094 13.4156V5.1268l-1.349 1.0396v7.2492h-.002c0 .424-.308.768-.6897.768-.382 0-.6913-.344-.6913-.768l.002-3.848c0-1.2544-.9137-2.272-2.0418-2.272-1.127 0-2.0415 1.0176-2.0415 2.272v3.848c0 .424-.31.768-.691.768-.381 0-.691-.344-.691-.768l.002-3.848c0-1.2544-.913-2.272-2.042-2.272-1.127 0-2.04 1.0176-2.04 2.272h.001v8.288l1.349-1.04.001-7.248c0-.4252.31-.7688.69-.7688.382 0 .691.3436.691.7688l-.003 3.848c0 1.2544.915 2.272 2.043 2.272 1.127 0 2.042-1.0176 2.042-2.272h-.001l.001-3.848c0-.4252.31-.7688.691-.7688.382 0 .691.3436.691.7688l-.002 3.848c0 1.2544.914 2.272 2.042 2.272 1.128 0 2.042-1.0176 2.042-2.272h-.001z"></path>
      </g>
    </svg>